<svg xmlns="http://www.w3.org/2000/svg" width="83" height="21" viewBox="0 0 83 21" fill="none">
<path d="M0.93679 20V0.363636H4.49396V17.0181H13.1424V20H0.93679ZM35.7113 10.1818C35.7113 12.2976 35.315 14.1097 34.5224 15.6183C33.7361 17.1204 32.6623 18.271 31.3008 19.07C29.9457 19.869 28.4084 20.2685 26.6889 20.2685C24.9694 20.2685 23.429 19.869 22.0675 19.07C20.7123 18.2646 19.6385 17.1108 18.8459 15.6087C18.0596 14.1001 17.6665 12.2912 17.6665 10.1818C17.6665 8.06605 18.0596 6.2571 18.8459 4.75497C19.6385 3.24645 20.7123 2.09268 22.0675 1.29368C23.429 0.494672 24.9694 0.0951697 26.6889 0.0951697C28.4084 0.0951697 29.9457 0.494672 31.3008 1.29368C32.6623 2.09268 33.7361 3.24645 34.5224 4.75497C35.315 6.2571 35.7113 8.06605 35.7113 10.1818ZM32.1349 10.1818C32.1349 8.69247 31.9016 7.43643 31.435 6.41371C30.9748 5.38459 30.3356 4.60795 29.5174 4.08381C28.6992 3.55327 27.7564 3.288 26.6889 3.288C25.6214 3.288 24.6786 3.55327 23.8604 4.08381C23.0422 4.60795 22.3998 5.38459 21.9332 6.41371C21.473 7.43643 21.2429 8.69247 21.2429 10.1818C21.2429 11.6712 21.473 12.9304 21.9332 13.9595C22.3998 14.9822 23.0422 15.7589 23.8604 16.2894C24.6786 16.8136 25.6214 17.0756 26.6889 17.0756C27.7564 17.0756 28.6992 16.8136 29.5174 16.2894C30.3356 15.7589 30.9748 14.9822 31.435 13.9595C31.9016 12.9304 32.1349 11.6712 32.1349 10.1818ZM54.9291 6.63423C54.7693 6.11648 54.5488 5.65305 54.2675 5.24396C53.9927 4.82848 53.6603 4.47372 53.2704 4.17969C52.8869 3.88565 52.4458 3.66513 51.9472 3.51811C51.4487 3.3647 50.9053 3.288 50.3173 3.288C49.2626 3.288 48.3229 3.55327 47.4984 4.08381C46.6738 4.61435 46.025 5.39418 45.552 6.42329C45.0854 7.44602 44.8521 8.69247 44.8521 10.1626C44.8521 11.6456 45.0854 12.9016 45.552 13.9308C46.0186 14.9599 46.6674 15.7429 47.4984 16.2798C48.3293 16.8104 49.2945 17.0756 50.394 17.0756C51.3911 17.0756 52.2541 16.8839 52.9827 16.5004C53.7178 16.1168 54.2835 15.5735 54.6798 14.8704C55.0761 14.1609 55.2743 13.3299 55.2743 12.3775L56.0797 12.5021H50.7487V9.72159H58.7164V12.0803C58.7164 13.7614 58.3585 15.2156 57.6425 16.4428C56.9266 17.6701 55.9423 18.6161 54.6894 19.2809C53.4366 19.9393 51.9984 20.2685 50.3748 20.2685C48.5658 20.2685 46.9774 19.8626 45.6095 19.0508C44.248 18.2326 43.1837 17.0724 42.4167 15.5703C41.656 14.0618 41.2757 12.272 41.2757 10.201C41.2757 8.61577 41.4994 7.19993 41.9469 5.95348C42.4007 4.70703 43.0335 3.64915 43.8453 2.77983C44.6571 1.90412 45.6095 1.23935 46.7026 0.785511C47.7956 0.325283 48.9845 0.0951697 50.2693 0.0951697C51.356 0.0951697 52.3691 0.254971 53.3087 0.574573C54.2484 0.887783 55.0825 1.33523 55.8112 1.9169C56.5463 2.49858 57.1504 3.18892 57.6234 3.98793C58.0964 4.78693 58.4064 5.66903 58.5534 6.63423H54.9291ZM82.4023 10.1818C82.4023 12.2976 82.006 14.1097 81.2134 15.6183C80.4271 17.1204 79.3533 18.271 77.9918 19.07C76.6367 19.869 75.0994 20.2685 73.3799 20.2685C71.6605 20.2685 70.12 19.869 68.7585 19.07C67.4034 18.2646 66.3295 17.1108 65.5369 15.6087C64.7507 14.1001 64.3575 12.2912 64.3575 10.1818C64.3575 8.06605 64.7507 6.2571 65.5369 4.75497C66.3295 3.24645 67.4034 2.09268 68.7585 1.29368C70.12 0.494672 71.6605 0.0951697 73.3799 0.0951697C75.0994 0.0951697 76.6367 0.494672 77.9918 1.29368C79.3533 2.09268 80.4271 3.24645 81.2134 4.75497C82.006 6.2571 82.4023 8.06605 82.4023 10.1818ZM78.8259 10.1818C78.8259 8.69247 78.5926 7.43643 78.126 6.41371C77.6658 5.38459 77.0266 4.60795 76.2084 4.08381C75.3902 3.55327 74.4474 3.288 73.3799 3.288C72.3124 3.288 71.3696 3.55327 70.5514 4.08381C69.7333 4.60795 69.0909 5.38459 68.6242 6.41371C68.164 7.43643 67.9339 8.69247 67.9339 10.1818C67.9339 11.6712 68.164 12.9304 68.6242 13.9595C69.0909 14.9822 69.7333 15.7589 70.5514 16.2894C71.3696 16.8136 72.3124 17.0756 73.3799 17.0756C74.4474 17.0756 75.3902 16.8136 76.2084 16.2894C77.0266 15.7589 77.6658 14.9822 78.126 13.9595C78.5926 12.9304 78.8259 11.6712 78.8259 10.1818Z" fill="#D3DFE1"/>
</svg>